<?xml version="1.0" encoding="UTF-8" standalone="no"?>
<svg xmlns="http://www.w3.org/2000/svg" xmlns:xlink="http://www.w3.org/1999/xlink"  version="1.2" baseProfile="tiny">
<title>Qt SVG Document</title>
<desc>Generated with Qt</desc>
<defs>
</defs>
<g fill="none" stroke="black" stroke-width="1" fill-rule="evenodd" stroke-linecap="square" stroke-linejoin="bevel" >

<g fill="#dbb452" fill-opacity="1" stroke="#372905" stroke-opacity="1" stroke-width="1" stroke-linecap="square" stroke-linejoin="bevel" transform="matrix(1,0,0,1,0.7,0.7)"
font-family="Noto Sans" font-size="10" font-weight="400" font-style="normal" 
>
<path vector-effect="none" fill-rule="evenodd" d="M284.5,284.5 L487.871,92.7688 C469.913,73.7278 449.311,57.2082 426.651,43.7972 L284.5,284.5"/>
</g>

<g fill="#372905" fill-opacity="1" stroke="#372905" stroke-opacity="1" stroke-width="1" stroke-linecap="square" stroke-linejoin="bevel" transform="matrix(1,0,0,1,0.7,0.7)"
font-family="Noto Sans" font-size="10" font-weight="400" font-style="normal" 
>
<path vector-effect="none" fill-rule="evenodd" d="M478.31,83.8042 L437.474,51.1762 L461.779,62.6255 L478.31,83.8042"/>
</g>

<g fill="none" stroke="#372905" stroke-opacity="1" stroke-width="2" stroke-linecap="butt" stroke-linejoin="bevel" transform="matrix(1,0,0,1,0.7,0.7)"
font-family="Noto Sans" font-size="10" font-weight="400" font-style="normal" 
>
<path vector-effect="none" fill-rule="evenodd" d="M487.143,93.4548 C469.25,74.4819 448.721,58.0214 426.143,44.6584 "/>
</g>

<g fill="#dbd952" fill-opacity="1" stroke="#373605" stroke-opacity="1" stroke-width="1" stroke-linecap="square" stroke-linejoin="bevel" transform="matrix(1,0,0,1,0.7,0.7)"
font-family="Noto Sans" font-size="10" font-weight="400" font-style="normal" 
>
<path vector-effect="none" fill-rule="evenodd" d="M284.5,284.5 L424.811,42.7176 C407.726,32.7815 389.492,24.6043 370.357,18.4342 L284.5,284.5"/>
</g>

<g fill="#373605" fill-opacity="1" stroke="#373605" stroke-opacity="1" stroke-width="1" stroke-linecap="square" stroke-linejoin="bevel" transform="matrix(1,0,0,1,0.7,0.7)"
font-family="Noto Sans" font-size="10" font-weight="400" font-style="normal" 
>
<path vector-effect="none" fill-rule="evenodd" d="M421.356,41.3716 L373.605,20.1115 L400.013,25.0531 L421.356,41.3716"/>
</g>

<g fill="none" stroke="#373605" stroke-opacity="1" stroke-width="2" stroke-linecap="butt" stroke-linejoin="bevel" transform="matrix(1,0,0,1,0.7,0.7)"
font-family="Noto Sans" font-size="10" font-weight="400" font-style="normal" 
>
<path vector-effect="none" fill-rule="evenodd" d="M424.309,43.5827 C407.285,33.6821 389.116,25.5342 370.049,19.3861 "/>
</g>

<g fill="#c0db52" fill-opacity="1" stroke="#2d3705" stroke-opacity="1" stroke-width="1" stroke-linecap="square" stroke-linejoin="bevel" transform="matrix(1,0,0,1,0.7,0.7)"
font-family="Noto Sans" font-size="10" font-weight="400" font-style="normal" 
>
<path vector-effect="none" fill-rule="evenodd" d="M284.5,284.5 L368.614,17.8786 C355.743,13.8219 342.47,10.6715 328.869,8.50218 L284.5,284.5"/>
</g>

<g fill="#2d3705" fill-opacity="1" stroke="#2d3705" stroke-opacity="1" stroke-width="1" stroke-linecap="square" stroke-linejoin="bevel" transform="matrix(1,0,0,1,0.7,0.7)"
font-family="Noto Sans" font-size="10" font-weight="400" font-style="normal" 
>
<path vector-effect="none" fill-rule="evenodd" d="M368.397,18.413 L328.746,9.03083 L349.894,8.13146 L368.397,18.413"/>
</g>

<g fill="none" stroke="#2d3705" stroke-opacity="1" stroke-width="2" stroke-linecap="butt" stroke-linejoin="bevel" transform="matrix(1,0,0,1,0.7,0.7)"
font-family="Noto Sans" font-size="10" font-weight="400" font-style="normal" 
>
<path vector-effect="none" fill-rule="evenodd" d="M368.313,18.8325 C355.488,14.7903 342.262,11.6512 328.71,9.48965 "/>
</g>

<g fill="#abdb52" fill-opacity="1" stroke="#263705" stroke-opacity="1" stroke-width="1" stroke-linecap="square" stroke-linejoin="bevel" transform="matrix(1,0,0,1,0.7,0.7)"
font-family="Noto Sans" font-size="10" font-weight="400" font-style="normal" 
>
<path vector-effect="none" fill-rule="evenodd" d="M284.5,284.5 L327.663,8.31254 C324.756,7.86182 321.833,7.45591 318.897,7.09554 L284.5,284.5"/>
</g>

<g fill="#263705" fill-opacity="1" stroke="#263705" stroke-opacity="1" stroke-width="1" stroke-linecap="square" stroke-linejoin="bevel" transform="matrix(1,0,0,1,0.7,0.7)"
font-family="Noto Sans" font-size="10" font-weight="400" font-style="normal" 
>
<path vector-effect="none" fill-rule="evenodd" d="M327.544,8.84039 L318.804,7.61688 L324.025,3.26387 L327.544,8.84039"/>
</g>

<g fill="none" stroke="#263705" stroke-opacity="1" stroke-width="2" stroke-linecap="butt" stroke-linejoin="bevel" transform="matrix(1,0,0,1,0.7,0.7)"
font-family="Noto Sans" font-size="10" font-weight="400" font-style="normal" 
>
<path vector-effect="none" fill-rule="evenodd" d="M327.509,9.30069 C324.612,8.85158 321.7,8.44712 318.774,8.08804 "/>
</g>

<g fill="#a6db52" fill-opacity="1" stroke="#243705" stroke-opacity="1" stroke-width="1" stroke-linecap="square" stroke-linejoin="bevel" transform="matrix(1,0,0,1,0.7,0.7)"
font-family="Noto Sans" font-size="10" font-weight="400" font-style="normal" 
>
<path vector-effect="none" fill-rule="evenodd" d="M284.5,284.5 L315.562,6.70656 C305.363,5.57891 294.999,5 284.5,5 C282.965,5 281.433,5.01238 279.903,5.03703 L284.5,284.5"/>
</g>

<g fill="#243705" fill-opacity="1" stroke="#243705" stroke-opacity="1" stroke-width="1" stroke-linecap="square" stroke-linejoin="bevel" transform="matrix(1,0,0,1,0.7,0.7)"
font-family="Noto Sans" font-size="10" font-weight="400" font-style="normal" 
>
<path vector-effect="none" fill-rule="evenodd" d="M315.479,7.22521 L279.935,5.53735 L298.126,0.827058 L315.479,7.22521"/>
</g>

<g fill="none" stroke="#243705" stroke-opacity="1" stroke-width="2" stroke-linecap="butt" stroke-linejoin="bevel" transform="matrix(1,0,0,1,0.7,0.7)"
font-family="Noto Sans" font-size="10" font-weight="400" font-style="normal" 
>
<path vector-effect="none" fill-rule="evenodd" d="M315.451,7.70045 C305.289,6.57684 294.962,6 284.5,6 C282.97,6 281.444,6.01233 279.92,6.0369 "/>
</g>

<g fill="#94db52" fill-opacity="1" stroke="#1d3705" stroke-opacity="1" stroke-width="1" stroke-linecap="square" stroke-linejoin="bevel" transform="matrix(1,0,0,1,0.7,0.7)"
font-family="Noto Sans" font-size="10" font-weight="400" font-style="normal" 
>
<path vector-effect="none" fill-rule="evenodd" d="M284.5,284.5 L275.923,5.1291 C267.18,5.39261 258.539,6.05757 250.017,7.10617 L284.5,284.5"/>
</g>

<g fill="#1d3705" fill-opacity="1" stroke="#1d3705" stroke-opacity="1" stroke-width="1" stroke-linecap="square" stroke-linejoin="bevel" transform="matrix(1,0,0,1,0.7,0.7)"
font-family="Noto Sans" font-size="10" font-weight="400" font-style="normal" 
>
<path vector-effect="none" fill-rule="evenodd" d="M275.98,5.63013 L250.196,7.61688 L262.835,1.32754 L275.98,5.63013"/>
</g>

<g fill="none" stroke="#1d3705" stroke-opacity="1" stroke-width="2" stroke-linecap="butt" stroke-linejoin="bevel" transform="matrix(1,0,0,1,0.7,0.7)"
font-family="Noto Sans" font-size="10" font-weight="400" font-style="normal" 
>
<path vector-effect="none" fill-rule="evenodd" d="M275.953,6.12864 C267.242,6.3912 258.632,7.05378 250.14,8.09864 "/>
</g>

<g fill="#82db52" fill-opacity="1" stroke="#173705" stroke-opacity="1" stroke-width="1" stroke-linecap="square" stroke-linejoin="bevel" transform="matrix(1,0,0,1,0.7,0.7)"
font-family="Noto Sans" font-size="10" font-weight="400" font-style="normal" 
>
<path vector-effect="none" fill-rule="evenodd" d="M284.5,284.5 L236.732,9.06592 C233.013,9.70627 229.32,10.4201 225.653,11.2058 L284.5,284.5"/>
</g>

<g fill="#173705" fill-opacity="1" stroke="#173705" stroke-opacity="1" stroke-width="1" stroke-linecap="square" stroke-linejoin="bevel" transform="matrix(1,0,0,1,0.7,0.7)"
font-family="Noto Sans" font-size="10" font-weight="400" font-style="normal" 
>
<path vector-effect="none" fill-rule="evenodd" d="M236.952,9.58156 L225.897,11.724 L230.614,5.65893 L236.952,9.58156"/>
</g>

<g fill="none" stroke="#173705" stroke-opacity="1" stroke-width="2" stroke-linecap="butt" stroke-linejoin="bevel" transform="matrix(1,0,0,1,0.7,0.7)"
font-family="Noto Sans" font-size="10" font-weight="400" font-style="normal" 
>
<path vector-effect="none" fill-rule="evenodd" d="M236.903,10.0514 C233.197,10.6894 229.517,11.4007 225.864,12.1836 "/>
</g>

<g fill="#5ddb52" fill-opacity="1" stroke="#093705" stroke-opacity="1" stroke-width="1" stroke-linecap="square" stroke-linejoin="bevel" transform="matrix(1,0,0,1,0.7,0.7)"
font-family="Noto Sans" font-size="10" font-weight="400" font-style="normal" 
>
<path vector-effect="none" fill-rule="evenodd" d="M284.5,284.5 L165.194,31.6698 C159.951,34.1482 154.798,36.7848 149.74,39.5736 L284.5,284.5"/>
</g>

<g fill="#093705" fill-opacity="1" stroke="#093705" stroke-opacity="1" stroke-width="1" stroke-linecap="square" stroke-linejoin="bevel" transform="matrix(1,0,0,1,0.7,0.7)"
font-family="Noto Sans" font-size="10" font-weight="400" font-style="normal" 
>
<path vector-effect="none" fill-rule="evenodd" d="M165.487,32.157 L150.037,40.0398 L155.567,31.4541 L165.487,32.157"/>
</g>

<g fill="none" stroke="#093705" stroke-opacity="1" stroke-width="2" stroke-linecap="butt" stroke-linejoin="bevel" transform="matrix(1,0,0,1,0.7,0.7)"
font-family="Noto Sans" font-size="10" font-weight="400" font-style="normal" 
>
<path vector-effect="none" fill-rule="evenodd" d="M165.621,32.5744 C160.397,35.0439 155.262,37.6711 150.222,40.4499 "/>
</g>

<g fill="#52db52" fill-opacity="1" stroke="#053705" stroke-opacity="1" stroke-width="1" stroke-linecap="square" stroke-linejoin="bevel" transform="matrix(1,0,0,1,0.7,0.7)"
font-family="Noto Sans" font-size="10" font-weight="400" font-style="normal" 
>
<path vector-effect="none" fill-rule="evenodd" d="M284.5,284.5 L143.648,43.0332 C139.961,45.1881 136.329,47.4251 132.752,49.7415 L284.5,284.5"/>
</g>

<g fill="#053705" fill-opacity="1" stroke="#053705" stroke-opacity="1" stroke-width="1" stroke-linecap="square" stroke-linejoin="bevel" transform="matrix(1,0,0,1,0.7,0.7)"
font-family="Noto Sans" font-size="10" font-weight="400" font-style="normal" 
>
<path vector-effect="none" fill-rule="evenodd" d="M143.947,43.4899 L133.057,50.18 L135.846,42.5122 L143.947,43.4899"/>
</g>

<g fill="none" stroke="#053705" stroke-opacity="1" stroke-width="2" stroke-linecap="butt" stroke-linejoin="bevel" transform="matrix(1,0,0,1,0.7,0.7)"
font-family="Noto Sans" font-size="10" font-weight="400" font-style="normal" 
>
<path vector-effect="none" fill-rule="evenodd" d="M144.152,43.8971 C140.478,46.0443 136.859,48.2733 133.295,50.5815 "/>
</g>

<g fill="#52db72" fill-opacity="1" stroke="#053711" stroke-opacity="1" stroke-width="1" stroke-linecap="square" stroke-linejoin="bevel" transform="matrix(1,0,0,1,0.7,0.7)"
font-family="Noto Sans" font-size="10" font-weight="400" font-style="normal" 
>
<path vector-effect="none" fill-rule="evenodd" d="M284.5,284.5 L87.0794,86.6482 C81.8286,91.8875 76.7852,97.3346 71.9625,102.976 L284.5,284.5"/>
</g>

<g fill="#053711" fill-opacity="1" stroke="#053711" stroke-opacity="1" stroke-width="1" stroke-linecap="square" stroke-linejoin="bevel" transform="matrix(1,0,0,1,0.7,0.7)"
font-family="Noto Sans" font-size="10" font-weight="400" font-style="normal" 
>
<path vector-effect="none" fill-rule="evenodd" d="M87.4325,87.0021 L72.3467,103.304 L76.1628,91.4932 L87.4325,87.0021"/>
</g>

<g fill="none" stroke="#053711" stroke-opacity="1" stroke-width="2" stroke-linecap="butt" stroke-linejoin="bevel" transform="matrix(1,0,0,1,0.7,0.7)"
font-family="Noto Sans" font-size="10" font-weight="400" font-style="normal" 
>
<path vector-effect="none" fill-rule="evenodd" d="M87.7857,87.3561 C82.5538,92.5767 77.5284,98.0042 72.7229,103.625 "/>
</g>

<g fill="#e3bb55" fill-opacity="1" stroke="#392a05" stroke-opacity="1" stroke-width="1" stroke-linecap="square" stroke-linejoin="bevel" transform="matrix(1,0,0,1,0.7,0.7)"
font-family="Noto Sans" font-size="10" font-weight="400" font-style="normal" 
>
<path vector-effect="none" fill-rule="evenodd" d="M284.5,284.5 L456.583,122.266 C441.388,106.154 423.955,92.1762 404.782,80.8284 L284.5,284.5"/>
</g>

<g fill="#e3e155" fill-opacity="1" stroke="#393805" stroke-opacity="1" stroke-width="1" stroke-linecap="square" stroke-linejoin="bevel" transform="matrix(1,0,0,1,0.7,0.7)"
font-family="Noto Sans" font-size="10" font-weight="400" font-style="normal" 
>
<path vector-effect="none" fill-rule="evenodd" d="M284.5,284.5 L403.225,79.9149 C388.768,71.5074 373.339,64.5883 357.148,59.3674 L284.5,284.5"/>
</g>

<g fill="#c7e355" fill-opacity="1" stroke="#2f3905" stroke-opacity="1" stroke-width="1" stroke-linecap="square" stroke-linejoin="bevel" transform="matrix(1,0,0,1,0.7,0.7)"
font-family="Noto Sans" font-size="10" font-weight="400" font-style="normal" 
>
<path vector-effect="none" fill-rule="evenodd" d="M284.5,284.5 L355.673,58.8973 C344.782,55.4647 333.551,52.799 322.043,50.9634 L284.5,284.5"/>
</g>

<g fill="#b1e355" fill-opacity="1" stroke="#273905" stroke-opacity="1" stroke-width="1" stroke-linecap="square" stroke-linejoin="bevel" transform="matrix(1,0,0,1,0.7,0.7)"
font-family="Noto Sans" font-size="10" font-weight="400" font-style="normal" 
>
<path vector-effect="none" fill-rule="evenodd" d="M284.5,284.5 L321.023,50.8029 C318.563,50.4215 316.09,50.0781 313.605,49.7731 L284.5,284.5"/>
</g>

<g fill="#ace355" fill-opacity="1" stroke="#253905" stroke-opacity="1" stroke-width="1" stroke-linecap="square" stroke-linejoin="bevel" transform="matrix(1,0,0,1,0.7,0.7)"
font-family="Noto Sans" font-size="10" font-weight="400" font-style="normal" 
>
<path vector-effect="none" fill-rule="evenodd" d="M284.5,284.5 L310.783,49.444 C302.154,48.4898 293.384,48 284.5,48 C283.201,48 281.905,48.0105 280.611,48.0313 L284.5,284.5"/>
</g>

<g fill="#99e355" fill-opacity="1" stroke="#1e3905" stroke-opacity="1" stroke-width="1" stroke-linecap="square" stroke-linejoin="bevel" transform="matrix(1,0,0,1,0.7,0.7)"
font-family="Noto Sans" font-size="10" font-weight="400" font-style="normal" 
>
<path vector-effect="none" fill-rule="evenodd" d="M284.5,284.5 L277.242,48.1092 C269.845,48.3322 262.533,48.8949 255.322,49.7821 L284.5,284.5"/>
</g>

<g fill="#86e355" fill-opacity="1" stroke="#173905" stroke-opacity="1" stroke-width="1" stroke-linecap="square" stroke-linejoin="bevel" transform="matrix(1,0,0,1,0.7,0.7)"
font-family="Noto Sans" font-size="10" font-weight="400" font-style="normal" 
>
<path vector-effect="none" fill-rule="evenodd" d="M284.5,284.5 L244.081,51.4404 C240.934,51.9822 237.809,52.5862 234.706,53.2511 L284.5,284.5"/>
</g>

<g fill="#60e355" fill-opacity="1" stroke="#0a3905" stroke-opacity="1" stroke-width="1" stroke-linecap="square" stroke-linejoin="bevel" transform="matrix(1,0,0,1,0.7,0.7)"
font-family="Noto Sans" font-size="10" font-weight="400" font-style="normal" 
>
<path vector-effect="none" fill-rule="evenodd" d="M284.5,284.5 L183.549,70.5668 C179.112,72.6638 174.752,74.8948 170.472,77.2546 L284.5,284.5"/>
</g>

<g fill="#59e355" fill-opacity="1" stroke="#073905" stroke-opacity="1" stroke-width="1" stroke-linecap="square" stroke-linejoin="bevel" transform="matrix(1,0,0,1,0.7,0.7)"
font-family="Noto Sans" font-size="10" font-weight="400" font-style="normal" 
>
<path vector-effect="none" fill-rule="evenodd" d="M284.5,284.5 L170.472,77.2546 C168.891,78.1263 167.321,79.0156 165.763,79.9222 L284.5,284.5"/>
</g>

<g fill="#073905" fill-opacity="1" stroke="#073905" stroke-opacity="1" stroke-width="1" stroke-linecap="square" stroke-linejoin="bevel" transform="matrix(1,0,0,1,0.7,0.7)"
font-family="Noto Sans" font-size="10" font-weight="400" font-style="normal" 
>
<path vector-effect="none" fill-rule="evenodd" d="M170.761,77.7164 L166.054,80.3759 L166.055,74.6149 L170.761,77.7164"/>
</g>

<g fill="none" stroke="#073905" stroke-opacity="1" stroke-width="2" stroke-linecap="butt" stroke-linejoin="bevel" transform="matrix(1,0,0,1,0.7,0.7)"
font-family="Noto Sans" font-size="10" font-weight="400" font-style="normal" 
>
<path vector-effect="none" fill-rule="evenodd" d="M170.954,78.1309 C169.38,78.9989 167.817,79.8845 166.265,80.7872 "/>
</g>

<g fill="#55e355" fill-opacity="1" stroke="#053905" stroke-opacity="1" stroke-width="1" stroke-linecap="square" stroke-linejoin="bevel" transform="matrix(1,0,0,1,0.7,0.7)"
font-family="Noto Sans" font-size="10" font-weight="400" font-style="normal" 
>
<path vector-effect="none" fill-rule="evenodd" d="M284.5,284.5 L165.317,80.1819 C162.198,82.0053 159.124,83.8981 156.098,85.8582 L284.5,284.5"/>
</g>

<g fill="#55e376" fill-opacity="1" stroke="#053911" stroke-opacity="1" stroke-width="1" stroke-linecap="square" stroke-linejoin="bevel" transform="matrix(1,0,0,1,0.7,0.7)"
font-family="Noto Sans" font-size="10" font-weight="400" font-style="normal" 
>
<path vector-effect="none" fill-rule="evenodd" d="M284.5,284.5 L117.452,117.087 C113.009,121.52 108.741,126.129 104.661,130.903 L284.5,284.5"/>
</g>

<g fill="#ecc258" fill-opacity="1" stroke="#3b2c06" stroke-opacity="1" stroke-width="1" stroke-linecap="square" stroke-linejoin="bevel" transform="matrix(1,0,0,1,0.7,0.7)"
font-family="Noto Sans" font-size="10" font-weight="400" font-style="normal" 
>
<path vector-effect="none" fill-rule="evenodd" d="M284.5,284.5 L425.295,151.763 C412.863,138.581 398.6,127.144 382.912,117.86 L284.5,284.5"/>
</g>

<g fill="#ecea58" fill-opacity="1" stroke="#3b3a06" stroke-opacity="1" stroke-width="1" stroke-linecap="square" stroke-linejoin="bevel" transform="matrix(1,0,0,1,0.7,0.7)"
font-family="Noto Sans" font-size="10" font-weight="400" font-style="normal" 
>
<path vector-effect="none" fill-rule="evenodd" d="M284.5,284.5 L381.638,117.112 C369.81,110.233 357.187,104.572 343.939,100.301 L284.5,284.5"/>
</g>

<g fill="#ceec58" fill-opacity="1" stroke="#303b06" stroke-opacity="1" stroke-width="1" stroke-linecap="square" stroke-linejoin="bevel" transform="matrix(1,0,0,1,0.7,0.7)"
font-family="Noto Sans" font-size="10" font-weight="400" font-style="normal" 
>
<path vector-effect="none" fill-rule="evenodd" d="M284.5,284.5 L342.733,99.9159 C333.822,97.1075 324.633,94.9264 315.217,93.4246 L284.5,284.5"/>
</g>

<g fill="#b8ec58" fill-opacity="1" stroke="#283b06" stroke-opacity="1" stroke-width="1" stroke-linecap="square" stroke-linejoin="bevel" transform="matrix(1,0,0,1,0.7,0.7)"
font-family="Noto Sans" font-size="10" font-weight="400" font-style="normal" 
>
<path vector-effect="none" fill-rule="evenodd" d="M284.5,284.5 L314.382,93.2933 C312.369,92.9813 310.346,92.7002 308.313,92.4508 L284.5,284.5"/>
</g>

<g fill="#b3ec58" fill-opacity="1" stroke="#273b06" stroke-opacity="1" stroke-width="1" stroke-linecap="square" stroke-linejoin="bevel" transform="matrix(1,0,0,1,0.7,0.7)"
font-family="Noto Sans" font-size="10" font-weight="400" font-style="normal" 
>
<path vector-effect="none" fill-rule="evenodd" d="M284.5,284.5 L306.004,92.1815 C298.944,91.4008 291.769,91 284.5,91 C283.437,91 282.376,91.0086 281.318,91.0256 L284.5,284.5"/>
</g>

<g fill="#9fec58" fill-opacity="1" stroke="#1f3b06" stroke-opacity="1" stroke-width="1" stroke-linecap="square" stroke-linejoin="bevel" transform="matrix(1,0,0,1,0.7,0.7)"
font-family="Noto Sans" font-size="10" font-weight="400" font-style="normal" 
>
<path vector-effect="none" fill-rule="evenodd" d="M284.5,284.5 L278.562,91.0894 C272.51,91.2718 266.527,91.7322 260.627,92.4581 L284.5,284.5"/>
</g>

<g fill="#8cec58" fill-opacity="1" stroke="#183b06" stroke-opacity="1" stroke-width="1" stroke-linecap="square" stroke-linejoin="bevel" transform="matrix(1,0,0,1,0.7,0.7)"
font-family="Noto Sans" font-size="10" font-weight="400" font-style="normal" 
>
<path vector-effect="none" fill-rule="evenodd" d="M284.5,284.5 L251.43,93.8149 C248.855,94.2582 246.298,94.7524 243.76,95.2963 L284.5,284.5"/>
</g>

<g fill="#64ec58" fill-opacity="1" stroke="#0a3b06" stroke-opacity="1" stroke-width="1" stroke-linecap="square" stroke-linejoin="bevel" transform="matrix(1,0,0,1,0.7,0.7)"
font-family="Noto Sans" font-size="10" font-weight="400" font-style="normal" 
>
<path vector-effect="none" fill-rule="evenodd" d="M284.5,284.5 L201.904,109.464 C198.274,111.18 194.706,113.005 191.205,114.936 L284.5,284.5"/>
</g>

<g fill="#5dec58" fill-opacity="1" stroke="#073b06" stroke-opacity="1" stroke-width="1" stroke-linecap="square" stroke-linejoin="bevel" transform="matrix(1,0,0,1,0.7,0.7)"
font-family="Noto Sans" font-size="10" font-weight="400" font-style="normal" 
>
<path vector-effect="none" fill-rule="evenodd" d="M284.5,284.5 L191.205,114.936 C189.911,115.649 188.626,116.376 187.351,117.118 L284.5,284.5"/>
</g>

<g fill="#58ec58" fill-opacity="1" stroke="#063b06" stroke-opacity="1" stroke-width="1" stroke-linecap="square" stroke-linejoin="bevel" transform="matrix(1,0,0,1,0.7,0.7)"
font-family="Noto Sans" font-size="10" font-weight="400" font-style="normal" 
>
<path vector-effect="none" fill-rule="evenodd" d="M284.5,284.5 L186.987,117.331 C184.435,118.823 181.92,120.371 179.444,121.975 L284.5,284.5"/>
</g>

<g fill="#58ec7a" fill-opacity="1" stroke="#063b12" stroke-opacity="1" stroke-width="1" stroke-linecap="square" stroke-linejoin="bevel" transform="matrix(1,0,0,1,0.7,0.7)"
font-family="Noto Sans" font-size="10" font-weight="400" font-style="normal" 
>
<path vector-effect="none" fill-rule="evenodd" d="M284.5,284.5 L147.824,147.526 C144.189,151.153 140.697,154.924 137.359,158.829 L284.5,284.5"/>
</g>

<g fill="#f5c95b" fill-opacity="1" stroke="#3e2e06" stroke-opacity="1" stroke-width="1" stroke-linecap="square" stroke-linejoin="bevel" transform="matrix(1,0,0,1,0.7,0.7)"
font-family="Noto Sans" font-size="10" font-weight="400" font-style="normal" 
>
<path vector-effect="none" fill-rule="evenodd" d="M284.5,284.5 L394.008,181.26 C384.226,170.889 372.987,161.906 360.619,154.641 L284.5,284.5"/>
</g>

<g fill="#f5f25b" fill-opacity="1" stroke="#3e3d06" stroke-opacity="1" stroke-width="1" stroke-linecap="square" stroke-linejoin="bevel" transform="matrix(1,0,0,1,0.7,0.7)"
font-family="Noto Sans" font-size="10" font-weight="400" font-style="normal" 
>
<path vector-effect="none" fill-rule="evenodd" d="M284.5,284.5 L360.052,154.309 C350.574,148.797 340.438,144.29 329.792,140.935 L284.5,284.5"/>
</g>

<g fill="#d6f55b" fill-opacity="1" stroke="#333e06" stroke-opacity="1" stroke-width="1" stroke-linecap="square" stroke-linejoin="bevel" transform="matrix(1,0,0,1,0.7,0.7)"
font-family="Noto Sans" font-size="10" font-weight="400" font-style="normal" 
>
<path vector-effect="none" fill-rule="evenodd" d="M284.5,284.5 L329.792,140.935 C322.657,138.686 315.292,136.954 307.742,135.784 L284.5,284.5"/>
</g>

<g fill="#bff55b" fill-opacity="1" stroke="#2a3e06" stroke-opacity="1" stroke-width="1" stroke-linecap="square" stroke-linejoin="bevel" transform="matrix(1,0,0,1,0.7,0.7)"
font-family="Noto Sans" font-size="10" font-weight="400" font-style="normal" 
>
<path vector-effect="none" fill-rule="evenodd" d="M284.5,284.5 L307.742,135.784 C306.015,135.516 304.278,135.278 302.532,135.069 L284.5,284.5"/>
</g>

<g fill="#baf55b" fill-opacity="1" stroke="#283e06" stroke-opacity="1" stroke-width="1" stroke-linecap="square" stroke-linejoin="bevel" transform="matrix(1,0,0,1,0.7,0.7)"
font-family="Noto Sans" font-size="10" font-weight="400" font-style="normal" 
>
<path vector-effect="none" fill-rule="evenodd" d="M284.5,284.5 L301.226,134.919 C295.734,134.312 290.153,134 284.5,134 C283.121,134 281.746,134.019 280.376,134.055 L284.5,284.5"/>
</g>

<g fill="#a6f55b" fill-opacity="1" stroke="#213e06" stroke-opacity="1" stroke-width="1" stroke-linecap="square" stroke-linejoin="bevel" transform="matrix(1,0,0,1,0.7,0.7)"
font-family="Noto Sans" font-size="10" font-weight="400" font-style="normal" 
>
<path vector-effect="none" fill-rule="evenodd" d="M284.5,284.5 L279.881,134.07 C275.062,134.215 270.3,134.587 265.606,135.175 L284.5,284.5"/>
</g>

<g fill="#91f55b" fill-opacity="1" stroke="#193e06" stroke-opacity="1" stroke-width="1" stroke-linecap="square" stroke-linejoin="bevel" transform="matrix(1,0,0,1,0.7,0.7)"
font-family="Noto Sans" font-size="10" font-weight="400" font-style="normal" 
>
<path vector-effect="none" fill-rule="evenodd" d="M284.5,284.5 L258.779,136.189 C256.668,136.553 254.572,136.96 252.492,137.411 L284.5,284.5"/>
</g>

<g fill="#68f55b" fill-opacity="1" stroke="#0b3e06" stroke-opacity="1" stroke-width="1" stroke-linecap="square" stroke-linejoin="bevel" transform="matrix(1,0,0,1,0.7,0.7)"
font-family="Noto Sans" font-size="10" font-weight="400" font-style="normal" 
>
<path vector-effect="none" fill-rule="evenodd" d="M284.5,284.5 L220.258,148.361 C216.343,150.212 212.52,152.227 208.798,154.397 L284.5,284.5"/>
</g>

<g fill="#5bf55b" fill-opacity="1" stroke="#063e06" stroke-opacity="1" stroke-width="1" stroke-linecap="square" stroke-linejoin="bevel" transform="matrix(1,0,0,1,0.7,0.7)"
font-family="Noto Sans" font-size="10" font-weight="400" font-style="normal" 
>
<path vector-effect="none" fill-rule="evenodd" d="M284.5,284.5 L208.656,154.479 C206.104,155.972 203.599,157.537 201.144,159.173 L284.5,284.5"/>
</g>

<g fill="#5bf57f" fill-opacity="1" stroke="#063e13" stroke-opacity="1" stroke-width="1" stroke-linecap="square" stroke-linejoin="bevel" transform="matrix(1,0,0,1,0.7,0.7)"
font-family="Noto Sans" font-size="10" font-weight="400" font-style="normal" 
>
<path vector-effect="none" fill-rule="evenodd" d="M284.5,284.5 L178.197,177.964 C175.331,180.824 172.579,183.799 169.95,186.881 L284.5,284.5"/>
</g>

<g fill="#ff5f5f" fill-opacity="1" stroke="#400606" stroke-opacity="1" stroke-width="1" stroke-linecap="square" stroke-linejoin="bevel" transform="matrix(1,0,0,1,0.7,0.7)"
font-family="Noto Sans" font-size="10" font-weight="400" font-style="normal" 
>
<path vector-effect="none" fill-rule="evenodd" d="M284.5,284.5 L392,284.5 C392,255.953 380.873,230.006 362.72,210.757 L284.5,284.5"/>
</g>

<g fill="#400606" fill-opacity="1" stroke="#400606" stroke-opacity="1" stroke-width="1" stroke-linecap="square" stroke-linejoin="bevel" transform="matrix(1,0,0,1,0.7,0.7)"
font-family="Noto Sans" font-size="10" font-weight="400" font-style="normal" 
>
<path vector-effect="none" fill-rule="evenodd" d="M388.731,260.317 L376.989,230.697 L388.617,243.225 L388.731,260.317"/>
</g>

<g fill="none" stroke="#400606" stroke-opacity="1" stroke-width="2" stroke-linecap="butt" stroke-linejoin="bevel" transform="matrix(1,0,0,1,0.7,0.7)"
font-family="Noto Sans" font-size="10" font-weight="400" font-style="normal" 
>
<path vector-effect="none" fill-rule="evenodd" d="M391,284.5 C391,256.219 379.977,230.513 361.992,211.443 "/>
</g>

<g fill="#ffd25f" fill-opacity="1" stroke="#403006" stroke-opacity="1" stroke-width="1" stroke-linecap="square" stroke-linejoin="bevel" transform="matrix(1,0,0,1,0.7,0.7)"
font-family="Noto Sans" font-size="10" font-weight="400" font-style="normal" 
>
<path vector-effect="none" fill-rule="evenodd" d="M284.5,284.5 L362.72,210.757 C355.626,203.236 347.46,196.738 338.466,191.507 L284.5,284.5"/>
</g>

<g fill="#fffc5f" fill-opacity="1" stroke="#403f06" stroke-opacity="1" stroke-width="1" stroke-linecap="square" stroke-linejoin="bevel" transform="matrix(1,0,0,1,0.7,0.7)"
font-family="Noto Sans" font-size="10" font-weight="400" font-style="normal" 
>
<path vector-effect="none" fill-rule="evenodd" d="M284.5,284.5 L338.466,191.507 C331.696,187.569 324.456,184.35 316.851,181.953 L284.5,284.5"/>
</g>

<g fill="#dfff5f" fill-opacity="1" stroke="#344006" stroke-opacity="1" stroke-width="1" stroke-linecap="square" stroke-linejoin="bevel" transform="matrix(1,0,0,1,0.7,0.7)"
font-family="Noto Sans" font-size="10" font-weight="400" font-style="normal" 
>
<path vector-effect="none" fill-rule="evenodd" d="M284.5,284.5 L316.851,181.953 C310.299,179.888 303.475,178.433 296.447,177.656 L284.5,284.5"/>
</g>

<g fill="#c2ff5f" fill-opacity="1" stroke="#2a4006" stroke-opacity="1" stroke-width="1" stroke-linecap="square" stroke-linejoin="bevel" transform="matrix(1,0,0,1,0.7,0.7)"
font-family="Noto Sans" font-size="10" font-weight="400" font-style="normal" 
>
<path vector-effect="none" fill-rule="evenodd" d="M284.5,284.5 L296.447,177.656 C292.524,177.223 288.538,177 284.5,177 C283.396,177 282.297,177.017 281.201,177.05 L284.5,284.5"/>
</g>

<g fill="#acff5f" fill-opacity="1" stroke="#224006" stroke-opacity="1" stroke-width="1" stroke-linecap="square" stroke-linejoin="bevel" transform="matrix(1,0,0,1,0.7,0.7)"
font-family="Noto Sans" font-size="10" font-weight="400" font-style="normal" 
>
<path vector-effect="none" fill-rule="evenodd" d="M284.5,284.5 L281.201,177.05 C276.078,177.204 271.046,177.717 266.128,178.564 L284.5,284.5"/>
</g>

<g fill="#97ff5f" fill-opacity="1" stroke="#1a4006" stroke-opacity="1" stroke-width="1" stroke-linecap="square" stroke-linejoin="bevel" transform="matrix(1,0,0,1,0.7,0.7)"
font-family="Noto Sans" font-size="10" font-weight="400" font-style="normal" 
>
<path vector-effect="none" fill-rule="evenodd" d="M284.5,284.5 L266.128,178.564 C262.792,179.138 259.508,179.866 256.285,180.741 L284.5,284.5"/>
</g>

<g fill="#87ff5f" fill-opacity="1" stroke="#154006" stroke-opacity="1" stroke-width="1" stroke-linecap="square" stroke-linejoin="bevel" transform="matrix(1,0,0,1,0.7,0.7)"
font-family="Noto Sans" font-size="10" font-weight="400" font-style="normal" 
>
<path vector-effect="none" fill-rule="evenodd" d="M284.5,284.5 L256.285,180.741 C253.217,181.573 250.202,182.538 247.249,183.629 L284.5,284.5"/>
</g>

<g fill="#154006" fill-opacity="1" stroke="#154006" stroke-opacity="1" stroke-width="1" stroke-linecap="square" stroke-linejoin="bevel" transform="matrix(1,0,0,1,0.7,0.7)"
font-family="Noto Sans" font-size="10" font-weight="400" font-style="normal" 
>
<path vector-effect="none" fill-rule="evenodd" d="M256.468,181.237 L247.465,184.114 L250.472,177.794 L256.468,181.237"/>
</g>

<g fill="none" stroke="#154006" stroke-opacity="1" stroke-width="2" stroke-linecap="butt" stroke-linejoin="bevel" transform="matrix(1,0,0,1,0.7,0.7)"
font-family="Noto Sans" font-size="10" font-weight="400" font-style="normal" 
>
<path vector-effect="none" fill-rule="evenodd" d="M256.548,181.706 C253.508,182.531 250.521,183.487 247.596,184.568 "/>
</g>

<g fill="#7aff5f" fill-opacity="1" stroke="#104006" stroke-opacity="1" stroke-width="1" stroke-linecap="square" stroke-linejoin="bevel" transform="matrix(1,0,0,1,0.7,0.7)"
font-family="Noto Sans" font-size="10" font-weight="400" font-style="normal" 
>
<path vector-effect="none" fill-rule="evenodd" d="M284.5,284.5 L247.249,183.629 C244.308,184.716 241.427,185.927 238.613,187.258 L284.5,284.5"/>
</g>

<g fill="#104006" fill-opacity="1" stroke="#104006" stroke-opacity="1" stroke-width="1" stroke-linecap="square" stroke-linejoin="bevel" transform="matrix(1,0,0,1,0.7,0.7)"
font-family="Noto Sans" font-size="10" font-weight="400" font-style="normal" 
>
<path vector-effect="none" fill-rule="evenodd" d="M247.465,184.114 L238.857,187.723 L241.188,181.213 L247.465,184.114"/>
</g>

<g fill="none" stroke="#104006" stroke-opacity="1" stroke-width="2" stroke-linecap="butt" stroke-linejoin="bevel" transform="matrix(1,0,0,1,0.7,0.7)"
font-family="Noto Sans" font-size="10" font-weight="400" font-style="normal" 
>
<path vector-effect="none" fill-rule="evenodd" d="M247.596,184.568 C244.682,185.644 241.828,186.844 239.04,188.162 "/>
</g>

<g fill="#6cff5f" fill-opacity="1" stroke="#0b4006" stroke-opacity="1" stroke-width="1" stroke-linecap="square" stroke-linejoin="bevel" transform="matrix(1,0,0,1,0.7,0.7)"
font-family="Noto Sans" font-size="10" font-weight="400" font-style="normal" 
>
<path vector-effect="none" fill-rule="evenodd" d="M284.5,284.5 L238.613,187.258 C235.781,188.597 233.016,190.056 230.326,191.628 L284.5,284.5"/>
</g>

<g fill="#5fff5f" fill-opacity="1" stroke="#064006" stroke-opacity="1" stroke-width="1" stroke-linecap="square" stroke-linejoin="bevel" transform="matrix(1,0,0,1,0.7,0.7)"
font-family="Noto Sans" font-size="10" font-weight="400" font-style="normal" 
>
<path vector-effect="none" fill-rule="evenodd" d="M284.5,284.5 L230.326,191.628 C227.657,193.189 225.061,194.861 222.544,196.638 L284.5,284.5"/>
</g>

<g fill="#5fff6c" fill-opacity="1" stroke="#06400b" stroke-opacity="1" stroke-width="1" stroke-linecap="square" stroke-linejoin="bevel" transform="matrix(1,0,0,1,0.7,0.7)"
font-family="Noto Sans" font-size="10" font-weight="400" font-style="normal" 
>
<path vector-effect="none" fill-rule="evenodd" d="M284.5,284.5 L222.544,196.638 C220.052,198.399 217.638,200.263 215.308,202.224 L284.5,284.5"/>
</g>

<g fill="#06400b" fill-opacity="1" stroke="#06400b" stroke-opacity="1" stroke-width="1" stroke-linecap="square" stroke-linejoin="bevel" transform="matrix(1,0,0,1,0.7,0.7)"
font-family="Noto Sans" font-size="10" font-weight="400" font-style="normal" 
>
<path vector-effect="none" fill-rule="evenodd" d="M222.841,197.052 L215.632,202.608 L216.125,195.793 L222.841,197.052"/>
</g>

<g fill="none" stroke="#06400b" stroke-opacity="1" stroke-width="2" stroke-linecap="butt" stroke-linejoin="bevel" transform="matrix(1,0,0,1,0.7,0.7)"
font-family="Noto Sans" font-size="10" font-weight="400" font-style="normal" 
>
<path vector-effect="none" fill-rule="evenodd" d="M223.121,197.456 C220.652,199.2 218.26,201.047 215.952,202.99 "/>
</g>

<g fill="#5fff7a" fill-opacity="1" stroke="#064010" stroke-opacity="1" stroke-width="1" stroke-linecap="square" stroke-linejoin="bevel" transform="matrix(1,0,0,1,0.7,0.7)"
font-family="Noto Sans" font-size="10" font-weight="400" font-style="normal" 
>
<path vector-effect="none" fill-rule="evenodd" d="M284.5,284.5 L215.308,202.224 C212.975,204.189 210.727,206.25 208.569,208.403 L284.5,284.5"/>
</g>

<g fill="#064010" fill-opacity="1" stroke="#064010" stroke-opacity="1" stroke-width="1" stroke-linecap="square" stroke-linejoin="bevel" transform="matrix(1,0,0,1,0.7,0.7)"
font-family="Noto Sans" font-size="10" font-weight="400" font-style="normal" 
>
<path vector-effect="none" fill-rule="evenodd" d="M215.632,202.608 L208.922,208.757 L208.834,201.925 L215.632,202.608"/>
</g>

<g fill="none" stroke="#064010" stroke-opacity="1" stroke-width="2" stroke-linecap="butt" stroke-linejoin="bevel" transform="matrix(1,0,0,1,0.7,0.7)"
font-family="Noto Sans" font-size="10" font-weight="400" font-style="normal" 
>
<path vector-effect="none" fill-rule="evenodd" d="M215.952,202.99 C213.64,204.936 211.413,206.978 209.275,209.111 "/>
</g>

<g fill="#5fff84" fill-opacity="1" stroke="#064014" stroke-opacity="1" stroke-width="1" stroke-linecap="square" stroke-linejoin="bevel" transform="matrix(1,0,0,1,0.7,0.7)"
font-family="Noto Sans" font-size="10" font-weight="400" font-style="normal" 
>
<path vector-effect="none" fill-rule="evenodd" d="M284.5,284.5 L208.569,208.403 C206.522,210.446 204.557,212.571 202.679,214.772 L284.5,284.5"/>
</g>

<g fill="#085a22" fill-opacity="1" stroke="#eefff3" stroke-opacity="1" stroke-width="1" stroke-linecap="square" stroke-linejoin="bevel" transform="matrix(1,0,0,1,0.7,0.7)"
font-family="Noto Sans" font-size="10" font-weight="400" font-style="normal" 
>
<path vector-effect="none" fill-rule="evenodd" d="M284.5,284.5 L202.679,214.772 C186.666,233.544 177,257.893 177,284.5 C177,343.871 225.129,392 284.5,392 C343.871,392 392,343.871 392,284.5 L284.5,284.5"/>
</g>

<g fill="#18191d" fill-opacity="1" stroke="#dedede" stroke-opacity="1" stroke-width="1" stroke-linecap="square" stroke-linejoin="bevel" transform="matrix(1,0,0,1,0.7,0.7)"
font-family="Noto Sans" font-size="10" font-weight="400" font-style="normal" 
>
<circle cx="284.5" cy="284.5" r="64.5"/>
<text fill="#dedede" fill-opacity="1" stroke="none" xml:space="preserve" x="265.797" y="288.5" font-family="Noto Sans" font-size="10" font-weight="400" font-style="normal" 
 >67,4 ГиБ</text>
</g>
</g>
</svg>
